<?xml version="1.0" standalone="no"?>
<!DOCTYPE svg PUBLIC "-//W3C//DTD SVG 20010904//EN"
 "http://www.w3.org/TR/2001/REC-SVG-20010904/DTD/svg10.dtd">
<svg version="1.0" xmlns="http://www.w3.org/2000/svg"
 width="126.000000pt" height="113.000000pt" viewBox="0 0 126.000000 113.000000"
 preserveAspectRatio="xMidYMid meet">

<g transform="translate(0.000000,113.000000) scale(0.100000,-0.100000)"
fill="#000000" stroke="none">
<path d="M105 978 c-3 -7 -4 -204 -3 -438 l3 -425 535 0 535 0 3 370 c2 367 2
371 -20 415 -17 33 -35 51 -68 68 -44 22 -47 22 -512 22 -366 0 -470 -3 -473
-12z m966 -209 c51 -17 53 -24 29 -67 l-22 -39 -39 15 c-35 13 -41 13 -64 -2
-42 -28 -31 -43 56 -75 71 -27 100 -58 106 -114 13 -113 -90 -188 -219 -158
-29 6 -64 20 -77 30 l-23 18 21 41 c12 23 24 42 26 42 3 0 22 -9 42 -20 45
-24 76 -25 97 -4 33 33 19 52 -62 80 -77 27 -104 60 -104 123 0 59 18 93 65
121 37 23 115 27 168 9z m-676 -13 c41 -17 65 -52 72 -104 7 -50 -20 -110 -56
-125 -14 -6 -28 -12 -30 -13 -2 -2 26 -41 63 -88 l66 -86 -73 0 -72 0 -50 77
-50 77 -3 -77 -3 -77 -54 0 -55 0 0 215 0 215 105 0 c69 0 118 -5 140 -14z
m405 -36 l0 -50 -45 0 -45 0 0 -165 0 -165 -60 0 -60 0 0 165 0 165 -45 0 -45
0 0 50 0 50 150 0 150 0 0 -50z"/>
<path d="M260 630 c0 -47 2 -50 26 -50 38 0 64 18 64 45 0 32 -25 55 -61 55
-28 0 -29 -1 -29 -50z"/>
</g>
</svg>
